/vscmnt/brussel_pixiu_data/_data_brussel/112/vsc11236/PredSimResults/SUBJ07opt3D/weighted-expIG/worker_03.mot
version=1
nRows=4
nColumns=50
inDegrees=yes
endheader
                time	         pelvis_tilt	         pelvis_list	     pelvis_rotation	           pelvis_tx	           pelvis_ty	           pelvis_tz	       hip_flexion_r	     hip_adduction_r	      hip_rotation_r	        knee_angle_r	       ankle_angle_r	         mtp_angle_r	       hip_flexion_l	     hip_adduction_l	      hip_rotation_l	        knee_angle_l	       ankle_angle_l	         mtp_angle_l	    lumbar_extension	      lumbar_bending	     lumbar_rotation	 ercspn_r/activation	 intobl_r/activation	 extobl_r/activation	    abd_r/activation	    add_r/activation	hamstrings_r/activation	bifemsh_r/activation	glut_max_r/activation	iliopsoas_r/activation	rect_fem_r/activation	  vasti_r/activation	gastroc_r/activation	 soleus_r/activation	tib_ant_r/activation	 ercspn_l/activation	 intobl_l/activation	 extobl_l/activation	    abd_l/activation	    add_l/activation	hamstrings_l/activation	bifemsh_l/activation	glut_max_l/activation	iliopsoas_l/activation	rect_fem_l/activation	  vasti_l/activation	gastroc_l/activation	 soleus_l/activation	tib_ant_l/activation	
          0.00000000	         -4.31649598	         -0.23843052	          9.38532825	          0.00000000	          0.84566784	         -0.01427262	         31.24002638	         -2.72330468	         -5.82786917	         -8.24510037	          2.64932353	          0.27424087	        -14.83943707	         -0.18037111	          5.21987637	         -8.86348858	          8.20526164	         29.24723350	        -11.92789057	         -1.22472304	         -1.59656427	          0.12589128	          0.12559665	          0.00999999	          0.01466334	          0.18280635	          0.09144432	          0.10815466	          0.11025194	          0.04586763	          0.00999999	          0.00999999	          0.00999999	          0.00999999	          0.43107201	          0.11848127	          0.00999999	          0.00999999	          0.03206503	          0.05578971	          0.01737005	          0.16804958	          0.01967898	          0.42277745	          0.01184405	          0.00999999	          0.16690699	          0.32335646	          0.01732665	
          0.01106438	         -4.30758333	         -0.19383045	          9.43445477	          0.01656387	          0.84393720	         -0.01379990	         31.21067578	         -2.53302793	         -5.52325997	        -10.17060057	          2.28024632	          0.25051656	        -15.31429531	         -0.28204664	          4.91399342	        -10.01715161	          7.23191642	         30.89017060	        -11.76844334	         -0.86230804	         -1.79116957	          0.10629061	          0.12663923	          0.00999999	          0.01238033	          0.17024044	          0.07970883	          0.10222107	          0.17374406	          0.03872626	          0.00999999	          0.00999999	          0.01402817	          0.01184405	          0.47520583	          0.14147200	          0.00999999	          0.00999999	          0.02707265	          0.08763123	          0.01466562	          0.14188507	          0.01661506	          0.40541617	          0.00999999	          0.00999999	          0.14092037	          0.30227045	          0.01462897	
          0.02212877	         -4.29300384	         -0.13700082	          9.42708819	          0.03326402	          0.84244294	         -0.01325840	         31.02882705	         -2.38162936	         -5.19055884	        -11.88056359	          1.87946031	          0.24129728	        -15.57927007	         -0.34394739	          4.55571134	        -11.57214753	          6.14353538	         32.49431291	        -11.61016137	         -0.50928199	         -1.97393200	          0.13700984	          0.10692211	          0.00999999	          0.09005889	          0.18065144	          0.07000145	          0.10142810	          0.18346700	          0.03269677	          0.00999999	          0.00999999	          0.01184405	          0.00999999	          0.55204154	          0.16217861	          0.00999999	          0.00999999	          0.02285757	          0.07874397	          0.01238226	          0.11979424	          0.01402817	          0.35230976	          0.00999999	          0.00999999	          0.11897974	          0.27860682	          0.01235131	
          0.03319315	         -4.27450806	         -0.05916216	          9.36496403	          0.04989870	          0.84133195	         -0.01262471	         30.78546581	         -2.24475273	         -4.92254087	        -13.47269052	          1.47296359	          0.22004946	        -15.57839242	         -0.35847438	          4.15321959	        -13.58650483	          4.89883633	         33.99154399	        -11.47352342	         -0.17676459	         -2.14235303	          0.15362128	          0.09027485	          0.00999999	          0.14697919	          0.19016524	          0.05910256	          0.08563623	          0.21487637	          0.02760604	          0.00999999	          0.00999999	          0.00999999	          0.00999999	          0.57248795	          0.19998719	          0.00999999	          0.00999999	          0.01929876	          0.07717486	          0.01414424	          0.10114286	          0.01184405	          0.29745682	          0.00999999	          0.00999999	          0.10045517	          0.24195546	          0.01042827	
